<svg width="38" height="36" viewBox="0 0 38 36" fill="none" xmlns="http://www.w3.org/2000/svg">
<path d="M19 8.89056C21.9391 8.89056 22.2869 8.90303 23.4426 8.95225C24.5172 8.99753 25.0967 9.16947 25.4838 9.31319C25.9953 9.50219 26.3645 9.73188 26.7467 10.0968C27.1338 10.4662 27.3696 10.8147 27.5718 11.3029C27.7223 11.6724 27.9024 12.2296 27.9499 13.2513C28.0014 14.3591 28.0145 14.6912 28.0145 17.4927C28.0145 20.2942 28.0014 20.6302 27.9499 21.734C27.9024 22.7598 27.7223 23.313 27.5718 23.6824C27.3738 24.1707 27.1338 24.5231 26.7509 24.888C26.3638 25.2574 25.9988 25.4825 25.4879 25.6755C25.1009 25.8192 24.5165 25.9911 23.4468 26.0364C22.2863 26.0856 21.9384 26.0981 19.0034 26.0981C16.0685 26.0981 15.7165 26.0856 14.5601 26.0364C13.4856 25.9911 12.906 25.8192 12.5189 25.6755C12.0074 25.4865 11.6383 25.2574 11.2553 24.8919C10.8683 24.5224 10.6324 24.174 10.4303 23.6864C10.2798 23.3169 10.0996 22.7591 10.0522 21.738C10.0006 20.6302 9.98756 20.2982 9.98756 17.4966C9.98756 14.6951 10.0006 14.3591 10.0522 13.2553C10.0996 12.2296 10.2798 11.6763 10.4303 11.3069C10.6283 10.8186 10.8689 10.4662 11.2512 10.1007C11.6383 9.73122 12.0033 9.50613 12.5148 9.31319C12.9019 9.16947 13.4856 8.99753 14.556 8.95225C15.7117 8.90303 16.0602 8.89056 18.9993 8.89056H19ZM19 6.99991C16.0135 6.99991 15.6402 7.01238 14.4666 7.0616C13.2979 7.11081 12.4942 7.29128 11.7984 7.54985C11.0724 7.82022 10.4578 8.17722 9.848 8.76391C9.23337 9.34666 8.85938 9.93269 8.57612 10.6218C8.30525 11.2905 8.11619 12.053 8.06462 13.1687C8.01306 14.2928 8 14.6492 8 17.4999C8 20.3507 8.01306 20.707 8.06462 21.8272C8.11619 22.9428 8.30525 23.71 8.57612 24.3741C8.86006 25.0671 9.23337 25.6538 9.848 26.2359C10.4578 26.818 11.0724 27.1796 11.7943 27.446C12.4949 27.7046 13.2937 27.8851 14.4625 27.9343C15.6354 27.9835 16.0094 27.996 18.9959 27.996C21.9824 27.996 22.3564 27.9835 23.5292 27.9343C24.698 27.8851 25.5017 27.7046 26.1974 27.446C26.9193 27.1796 27.5339 26.8187 28.1437 26.2359C28.7536 25.6532 29.1324 25.0671 29.4115 24.3781C29.6824 23.7093 29.8714 22.9468 29.923 21.8312C29.9746 20.7116 29.9876 20.3546 29.9876 17.5038C29.9876 14.6531 29.9746 14.2968 29.923 13.1765C29.8714 12.0609 29.6824 11.2938 29.4115 10.6296C29.1406 9.93203 28.7666 9.346 28.1527 8.76325C27.5429 8.18116 26.9283 7.81956 26.2064 7.55313C25.5058 7.29456 24.7069 7.1141 23.5382 7.06488C22.3612 7.01172 21.9872 6.99925 19.0007 6.99925L19 6.99991Z" fill="white"/>
<path d="M37.5 18C37.5 27.6399 29.2431 35.5 19 35.5C8.75692 35.5 0.5 27.6399 0.5 18C0.5 8.36014 8.75692 0.5 19 0.5C29.2431 0.5 37.5 8.36014 37.5 18Z" stroke="white"/>
<path d="M19 12.1063C15.8808 12.1063 13.3494 14.5219 13.3494 17.5C13.3494 20.4781 15.8801 22.8937 19 22.8937C22.1199 22.8937 24.6506 20.4781 24.6506 17.5C24.6506 14.5226 22.1199 12.1063 19 12.1063ZM19 20.9985C16.976 20.9985 15.3349 19.432 15.3349 17.5C15.3349 15.568 16.976 14.0015 19 14.0015C21.024 14.0015 22.665 15.568 22.665 17.5C22.665 19.432 21.024 20.9985 19 20.9985Z" fill="white"/>
<path d="M26.1926 11.893C26.1926 12.5886 25.6021 13.1523 24.8733 13.1523C24.1446 13.1523 23.554 12.5886 23.554 11.893C23.554 11.1974 24.1446 10.6337 24.8733 10.6337C25.6021 10.6337 26.1926 11.1974 26.1926 11.893Z" fill="white"/>
</svg>
