<svg width="240" height="39" viewBox="0 0 240 39" fill="none" xmlns="http://www.w3.org/2000/svg">
<path d="M27.967 0.878997C20.242 0.874997 12.182 2.615 4.04701 4.872C3.01401 5.08 2.00601 5.756 1.47301 6.592C0.983007 7.38 0.805007 8.171 0.652007 9C-0.137993 13.428 -0.0419928 17.776 0.122007 22.594C0.158007 23.697 0.322007 25.004 0.837007 25.799C1.37501 26.602 2.29701 27.112 3.39801 27.279C4.80461 27.4853 6.21563 27.6604 7.63001 27.804L7.31801 36.502C7.27001 37.194 7.60801 37.769 8.02801 38.1C8.40401 38.386 8.82301 38.513 9.25301 38.545C10.113 38.61 11.122 38.242 11.623 37.288C13.818 33.064 15.195 31.199 17.94 28.393C25.098 28.569 31.347 28.171 38.422 27.648C40.923 27.583 42.64 25.538 43.094 23.905C44.451 19.673 44.662 14.449 44.806 9.168C44.867 7.075 44.141 5.02 42.856 3.934C41.634 2.943 40.154 2.584 38.798 2.216C35.031 1.363 31.263 0.904997 27.967 0.878997ZM38.257 4.189C39.615 4.558 40.812 4.913 41.567 5.526C42.827 6.865 42.785 7.756 42.767 9.201C42.625 14.323 42.379 19.294 41.223 23.061C40.725 24.466 39.857 25.466 38.217 25.617C31.009 26.15 24.755 26.562 17.51 26.356C17.3689 26.3515 17.2284 26.376 17.0972 26.4279C16.966 26.4798 16.8468 26.5582 16.747 26.658C13.703 29.732 12.146 31.868 9.82601 36.334C9.77201 36.436 9.65501 36.498 9.51101 36.509C9.41401 36.504 9.37501 36.429 9.36901 36.361L9.68301 26.929C9.70201 26.42 9.28201 25.934 8.77601 25.879C7.08412 25.7174 5.39686 25.5107 3.71601 25.259C2.99001 25.148 2.72201 24.949 2.52301 24.653C2.17701 23.828 2.18501 23.318 2.15801 22.525C1.99601 17.75 1.91601 13.577 2.64901 9.425C2.71701 8.811 2.94701 8.183 3.19101 7.658C3.59501 7.026 4.21401 6.933 4.83501 6.761C12.791 4.564 20.575 2.921 27.903 2.916C31.495 3.046 35.267 3.406 38.257 4.189ZM10.778 12.279C9.68201 13.592 9.79101 15.375 10.638 16.569C11.08 17.194 11.77 17.697 12.61 17.811C13.701 17.901 14.393 17.459 15.14 16.951C16.493 15.775 16.63 13.723 15.601 12.241C15.077 11.486 14.239 11.033 13.383 11.001C12.211 11.013 11.415 11.536 10.778 12.278V12.279ZM22.634 11.207C21.542 11.242 20.659 11.998 20.12 12.814C19.503 13.747 19.143 14.915 19.642 16.06C20.602 18.263 23.919 18.236 25.242 15.997C25.852 14.965 25.696 13.792 25.242 12.941C24.79 12.091 24.106 11.398 23.111 11.239C22.9534 11.2131 22.7937 11.2024 22.634 11.207ZM32.259 11.414C31.919 11.406 31.569 11.438 31.241 11.525C29.929 11.875 28.812 13.229 28.981 14.962C29.067 15.834 29.468 16.684 30.191 17.27C30.914 17.855 31.964 18.117 33.071 17.89C34.343 17.63 35.131 16.605 35.394 15.615C35.657 14.625 35.591 13.616 34.98 12.798C34.6621 12.3753 34.2518 12.0308 33.7803 11.7909C33.3089 11.551 32.7879 11.4221 32.259 11.414ZM13.294 13.037C13.539 13.039 13.732 13.117 13.931 13.403C14.376 14.045 14.252 15.018 13.803 15.408C13.356 15.798 13.077 15.832 12.881 15.806C12.685 15.779 12.486 15.644 12.308 15.392C11.968 14.912 11.868 14.136 12.315 13.582C12.553 13.266 12.99 13.069 13.295 13.037H13.294ZM22.777 13.26C22.815 13.266 23.241 13.513 23.445 13.896C23.649 14.279 23.687 14.635 23.493 14.962C22.916 15.938 21.689 15.674 21.503 15.249C21.433 15.087 21.486 14.436 21.823 13.929C22.158 13.42 22.58 13.229 22.777 13.259V13.26ZM33.341 14.008C33.403 14.091 33.554 14.648 33.437 15.09C33.319 15.532 33.127 15.805 32.657 15.901C32.055 16.025 31.717 15.901 31.464 15.694C31.21 15.489 31.039 15.142 31.002 14.771C30.912 13.851 31.242 13.638 31.766 13.498C32.376 13.348 33.066 13.61 33.341 14.008Z" fill="white"/>
<path d="M57.61 4.996C57.626 4.736 57.721 4.502 57.897 4.295C57.9827 4.19352 58.0903 4.11287 58.2118 4.05916C58.3332 4.00545 58.4653 3.98009 58.598 3.985H65.424C65.654 3.985 65.891 4.081 66.136 4.272C66.2508 4.35442 66.3442 4.46319 66.4082 4.58918C66.4722 4.71516 66.5051 4.85468 66.504 4.996V15.889H77.925V4.996C77.925 4.72 78.021 4.483 78.212 4.284C78.404 4.084 78.652 3.984 78.959 3.984H85.693C85.999 3.984 86.267 4.061 86.497 4.214C86.727 4.368 86.842 4.613 86.842 4.95V37.1C86.842 37.437 86.742 37.69 86.542 37.858C86.344 38.027 86.083 38.111 85.762 38.111H78.959C78.653 38.111 78.404 38.027 78.212 37.858C78.021 37.69 77.925 37.438 77.925 37.1V24.047H66.504V37.1C66.504 37.422 66.4 37.67 66.194 37.847C65.987 38.023 65.707 38.111 65.354 38.111H58.598C57.955 38.111 57.626 37.812 57.61 37.215V4.996ZM120.485 37.721C120.286 37.889 120.075 37.996 119.853 38.042C119.646 38.0867 119.434 38.1102 119.222 38.112H115.752C115.476 38.112 115.238 38.062 115.039 37.962C114.839 37.862 114.671 37.728 114.533 37.56C114.392 37.3855 114.276 37.1919 114.189 36.985C114.096 36.7688 114.02 36.5462 113.959 36.319L113.247 33.377C113.017 33.852 112.684 34.392 112.247 34.997C111.774 35.639 111.213 36.2113 110.581 36.697C109.907 37.227 109.102 37.671 108.168 38.031C107.233 38.391 106.161 38.571 104.95 38.571C103.204 38.571 101.618 38.234 100.193 37.56C98.7979 36.9081 97.5566 35.9682 96.551 34.802C95.548 33.638 94.77 32.278 94.219 30.722C93.667 29.168 93.391 27.509 93.391 25.748V10.695C93.391 10.113 93.518 9.673 93.771 9.374C94.023 9.075 94.425 8.926 94.977 8.926H100.285C100.945 8.926 101.396 9.036 101.641 9.259C101.886 9.481 102.009 9.914 102.009 10.557V25.517C102.009 26.177 102.159 26.801 102.457 27.391C102.756 27.981 103.15 28.501 103.641 28.953C104.131 29.405 104.686 29.762 105.307 30.022C105.927 30.282 106.559 30.412 107.203 30.412C107.754 30.412 108.325 30.282 108.915 30.022C109.509 29.7587 110.059 29.4059 110.546 28.976C111.044 28.54 111.454 28.026 111.776 27.436C112.098 26.846 112.258 26.222 112.258 25.564V10.626C112.258 10.366 112.308 10.106 112.408 9.845C112.508 9.585 112.657 9.385 112.856 9.247C113.055 9.125 113.243 9.041 113.419 8.995C113.595 8.949 113.799 8.925 114.028 8.925H119.222C119.88 8.925 120.355 9.087 120.646 9.408C120.937 9.73 121.083 10.159 121.083 10.695V36.411C121.083 36.701 121.018 36.97 120.888 37.215C120.758 37.46 120.578 37.652 120.348 37.789L120.485 37.721ZM147.166 34.549C146.752 34.963 146.296 35.407 145.799 35.882C145.301 36.357 144.753 36.802 144.156 37.215C143.555 37.6306 142.907 37.974 142.226 38.238C141.514 38.5102 140.758 38.6465 139.996 38.64C137.913 38.64 135.994 38.25 134.239 37.468C132.528 36.7173 130.988 35.6266 129.712 34.262C128.448 32.906 127.46 31.309 126.748 29.47C126.035 27.632 125.679 25.656 125.679 23.541C125.679 21.411 126.035 19.431 126.748 17.601C127.46 15.771 128.448 14.177 129.712 12.821C130.987 11.4577 132.527 10.3706 134.239 9.627C135.994 8.853 137.913 8.466 139.996 8.466C140.839 8.466 141.609 8.589 142.306 8.834C142.979 9.06701 143.619 9.38348 144.213 9.776C144.788 10.159 145.316 10.592 145.799 11.074C146.281 11.557 146.737 12.028 147.166 12.488V1.985C147.166 1.495 147.316 1.082 147.614 0.744998C147.913 0.406998 148.361 0.238998 148.959 0.238998H154.129C154.329 0.238998 154.539 0.280998 154.761 0.364998C154.983 0.449998 155.186 0.567998 155.371 0.721998C155.554 0.874998 155.703 1.059 155.818 1.273C155.933 1.488 155.991 1.725 155.991 1.985V36.342C155.991 37.522 155.371 38.112 154.129 38.112H149.625C149.319 38.112 149.081 38.072 148.913 37.996C148.746 37.9211 148.6 37.8068 148.487 37.663C148.359 37.4943 148.255 37.309 148.177 37.112C148.069 36.8526 147.954 36.5958 147.833 36.342L147.166 34.549ZM133.952 23.541C133.944 24.5074 134.104 25.4679 134.423 26.38C134.737 27.26 135.185 28.023 135.768 28.666C136.357 29.3141 137.072 29.8342 137.87 30.194C138.69 30.57 139.598 30.757 140.594 30.757C141.574 30.757 142.497 30.581 143.363 30.229C144.204 29.8921 144.972 29.3964 145.626 28.769C146.275 28.1407 146.802 27.3966 147.178 26.575C147.568 25.732 147.787 24.828 147.833 23.863V23.541C147.836 22.5793 147.649 21.6266 147.281 20.738C146.925 19.8669 146.406 19.0715 145.753 18.394C145.098 17.7173 144.318 17.1749 143.455 16.797C142.553 16.402 141.578 16.2023 140.594 16.211C139.598 16.211 138.69 16.406 137.87 16.797C137.05 17.187 136.35 17.72 135.768 18.394C135.176 19.0839 134.72 19.8791 134.423 20.738C134.107 21.6386 133.948 22.5867 133.953 23.541H133.952ZM182.672 34.549C182.258 34.963 181.802 35.407 181.304 35.882C180.806 36.357 180.258 36.802 179.661 37.215C179.06 37.6306 178.412 37.974 177.731 38.238C177.019 38.5102 176.263 38.6465 175.501 38.64C173.418 38.64 171.499 38.25 169.745 37.468C168.034 36.7174 166.493 35.6267 165.217 34.262C163.954 32.906 162.965 31.309 162.253 29.47C161.541 27.632 161.184 25.656 161.184 23.541C161.184 21.411 161.541 19.431 162.253 17.601C162.965 15.771 163.953 14.177 165.217 12.821C166.492 11.4576 168.033 10.3705 169.745 9.627C171.499 8.853 173.418 8.466 175.501 8.466C176.344 8.466 177.114 8.589 177.811 8.834C178.484 9.06701 179.124 9.38348 179.718 9.776C180.293 10.159 180.821 10.592 181.304 11.074C181.787 11.557 182.242 12.028 182.671 12.488V1.985C182.671 1.495 182.821 1.082 183.119 0.744998C183.419 0.406998 183.866 0.238998 184.464 0.238998H189.634C189.834 0.238998 190.044 0.280998 190.266 0.364998C190.489 0.449998 190.692 0.567998 190.876 0.721998C191.059 0.874998 191.209 1.059 191.324 1.273C191.438 1.488 191.496 1.725 191.496 1.985V36.342C191.496 37.522 190.876 38.112 189.634 38.112H185.13C184.824 38.112 184.586 38.072 184.418 37.996C184.252 37.921 184.106 37.8067 183.993 37.663C183.865 37.4943 183.761 37.309 183.683 37.112C183.574 36.8525 183.459 36.5958 183.338 36.342L182.672 34.549ZM169.457 23.541C169.449 24.5074 169.609 25.4679 169.928 26.38C170.243 27.26 170.691 28.023 171.273 28.666C171.862 29.3142 172.578 29.8343 173.376 30.194C174.196 30.57 175.103 30.757 176.099 30.757C177.079 30.757 178.002 30.581 178.868 30.229C179.709 29.8922 180.478 29.3965 181.132 28.769C181.781 28.1405 182.306 27.3964 182.682 26.575C183.073 25.732 183.292 24.828 183.338 23.863V23.541C183.341 22.5793 183.154 21.6266 182.786 20.738C182.43 19.8669 181.911 19.0715 181.258 18.394C180.603 17.7173 179.823 17.1749 178.96 16.797C178.058 16.402 177.083 16.2023 176.099 16.211C175.103 16.211 174.195 16.406 173.376 16.797C172.556 17.187 171.855 17.72 171.273 18.394C170.681 19.0839 170.225 19.8791 169.928 20.738C169.612 21.6386 169.452 22.5867 169.457 23.541ZM197.61 2.008C197.61 1.518 197.732 1.105 197.977 0.767998C198.223 0.429998 198.644 0.261998 199.241 0.261998H204.871C205.025 0.261998 205.186 0.303998 205.354 0.387998C205.531 0.478586 205.69 0.599411 205.825 0.744998C205.971 0.897998 206.093 1.082 206.193 1.296C206.293 1.511 206.343 1.748 206.343 2.008V36.342C206.343 36.924 206.178 37.364 205.848 37.663C205.519 37.962 205.094 38.111 204.573 38.111H199.241C198.644 38.111 198.223 37.961 197.977 37.663C197.732 37.364 197.61 36.923 197.61 36.342V2.008ZM236.31 34.618C234.978 35.8489 233.437 36.8332 231.76 37.525C230.062 38.2248 228.242 38.5803 226.405 38.571C224.305 38.571 222.322 38.188 220.453 37.421C218.626 36.6827 216.957 35.6027 215.535 34.239C214.118 32.8728 212.979 31.2456 212.18 29.447C211.352 27.609 210.939 25.61 210.939 23.449C210.939 22.101 211.103 20.795 211.433 19.531C211.752 18.2943 212.223 17.1018 212.835 15.981C213.44 14.8778 214.181 13.8548 215.041 12.936C215.898 12.0156 216.876 11.2154 217.948 10.557C219.038 9.89015 220.213 9.37222 221.441 9.017C222.733 8.64454 224.071 8.45899 225.416 8.466C226.688 8.466 227.921 8.635 229.116 8.972C230.311 9.309 231.434 9.784 232.483 10.396C233.533 11.009 234.493 11.745 235.367 12.603C236.229 13.4467 236.985 14.392 237.619 15.418C238.247 16.4366 238.738 17.5337 239.079 18.681C239.423 19.838 239.596 21.029 239.596 22.254C239.596 23.051 239.584 23.702 239.561 24.208C239.538 24.713 239.419 25.116 239.205 25.414C238.99 25.714 238.635 25.92 238.136 26.034C237.638 26.15 236.906 26.207 235.942 26.207H219.396C219.549 27.187 219.859 28.007 220.326 28.667C220.759 29.2917 221.309 29.826 221.946 30.24C222.559 30.631 223.21 30.91 223.9 31.08C224.539 31.2418 225.194 31.3264 225.853 31.332C226.405 31.332 226.971 31.274 227.553 31.16C228.127 31.0474 228.691 30.8937 229.243 30.7C229.759 30.5207 230.258 30.2976 230.736 30.033C231.188 29.781 231.552 29.516 231.828 29.241C232.073 29.041 232.284 28.892 232.46 28.792C232.636 28.692 232.824 28.643 233.023 28.643C233.223 28.643 233.425 28.713 233.633 28.85C233.885 29.0261 234.119 29.226 234.333 29.447L236.769 32.205C236.937 32.405 237.045 32.585 237.091 32.745C237.137 32.906 237.16 33.071 237.16 33.239C237.16 33.546 237.075 33.81 236.907 34.032C236.737 34.2553 236.537 34.4527 236.31 34.618ZM225.256 15.475C224.658 15.475 224.08 15.594 223.521 15.831C222.954 16.0732 222.423 16.3944 221.946 16.785C221.456 17.183 221.016 17.635 220.625 18.141C220.252 18.6181 219.932 19.1345 219.671 19.681H231.414C231.106 19.1048 230.757 18.5517 230.369 18.026C230 17.5272 229.568 17.079 229.082 16.693C228.585 16.3024 228.026 15.9994 227.427 15.797C226.807 15.582 226.083 15.475 225.256 15.475Z" fill="white"/>
</svg>
