<svg width="38" height="36" viewBox="0 0 38 36" fill="none" xmlns="http://www.w3.org/2000/svg">
<path d="M29 12.0105C28.2658 12.3538 27.4728 12.5826 26.6448 12.6846C27.4922 12.153 28.1408 11.3116 28.4489 10.3106C27.6559 10.8009 26.7773 11.1605 25.8437 11.3528C25.0939 10.5191 24.0278 10 22.848 10C20.5828 10 18.7469 11.9209 18.7469 14.291C18.7469 14.6258 18.7819 14.9527 18.8525 15.2678C15.4432 15.088 12.42 13.3796 10.3972 10.7813C10.0454 11.4149 9.84297 12.1543 9.84297 12.9389C9.84297 14.4264 10.5653 15.7419 11.667 16.5107C10.9953 16.4905 10.3629 16.2943 9.80797 15.9753C9.80797 15.9916 9.80797 16.0119 9.80797 16.0282C9.80797 18.108 11.2221 19.8452 13.1005 20.2369C12.7568 20.3349 12.3937 20.3879 12.0188 20.3879C11.7532 20.3879 11.4995 20.3591 11.2458 20.3101C11.7695 22.014 13.2848 23.2562 15.077 23.2935C13.671 24.4455 11.9057 25.1327 9.98044 25.1327C9.64863 25.1327 9.32431 25.1124 9 25.0712C10.8203 26.2932 12.9755 27 15.2919 27C22.8374 27 26.9654 20.4579 26.9654 14.786C26.9654 14.5983 26.9616 14.4139 26.9535 14.2302C27.754 13.6294 28.4495 12.8735 29 12.0112V12.0105Z" fill="white"/>
<path d="M37.5 18C37.5 27.6399 29.2431 35.5 19 35.5C8.75692 35.5 0.5 27.6399 0.5 18C0.5 8.36014 8.75692 0.5 19 0.5C29.2431 0.5 37.5 8.36014 37.5 18Z" stroke="white"/>
</svg>
